{
	"asset":{
		"generator":"Khronos glTF Blender I/O v4.0.44",
		"version":"2.0"
	},
	"extensionsUsed":[
		"KHR_lights_punctual"
	],
	"extensionsRequired":[
		"KHR_lights_punctual"
	],
	"extensions":{
		"KHR_lights_punctual":{
			"lights":[
				{
					"color":[
						1,
						1,
						1
					],
					"intensity":543.5141306588226,
					"type":"point",
					"name":"Point"
				}
			]
		}
	},
	"scene":0,
	"scenes":[
		{
			"name":"Scene",
			"nodes":[
				0,
				1,
				2,
				3,
				4,
				5
			]
		}
	],
	"nodes":[
		{
			"camera":0,
			"name":"Camera",
			"rotation":[
				-0.14068375527858734,
				0.7302413582801819,
				0.15815530717372894,
				0.6495710611343384
			],
			"translation":[
				80.92888641357422,
				25.28830909729004,
				-10.544208526611328
			]
		},
		{
			"mesh":0,
			"name":"Cone",
			"rotation":[
				-1,
				0,
				0,
				4.371138828673793e-08
			],
			"scale":[
				50,
				30,
				50
			],
			"translation":[
				0,
				5,
				0
			]
		},
		{
			"extensions":{
				"KHR_lights_punctual":{
					"light":0
				}
			},
			"name":"Point",
			"rotation":[
				-0.7071068286895752,
				0,
				0,
				0.7071068286895752
			],
			"translation":[
				-5.63507080078125,
				18.050750732421875,
				-5.19635009765625
			]
		},
		{
			"mesh":1,
			"name":"spaceship_1",
			"scale":[
				0.5,
				0.5,
				0.5
			],
			"translation":[
				0,
				0.0837545394897461,
				-496.5334167480469
			]
		},
		{
			"mesh":2,
			"name":"spaceship_2",
			"translation":[
				31.62813949584961,
				64.45594787597656,
				7.650121688842773
			]
		},
		{
			"mesh":3,
			"name":"stolp_1",
			"translation":[
				31.62813949584961,
				19.197425842285156,
				7.650121688842773
			]
		}
	],
	"cameras":[
		{
			"name":"Camera",
			"perspective":{
				"aspectRatio":1.7777777777777777,
				"yfov":0.8842551447044867,
				"zfar":1000,
				"znear":0.10000000149011612
			},
			"type":"perspective"
		}
	],
	"materials":[
		{
			"doubleSided":true,
			"name":"Material.001",
			"pbrMetallicRoughness":{
				"metallicFactor":0,
				"roughnessFactor":0.5
			}
		},
		{
			"doubleSided":true,
			"name":"Material",
			"pbrMetallicRoughness":{
				"baseColorFactor":[
					0.8005045056343079,
					0.06369379162788391,
					0.5443241000175476,
					1
				],
				"metallicFactor":0,
				"roughnessFactor":0.4000000059604645
			}
		}
	],
	"meshes":[
		{
			"name":"Cone",
			"primitives":[
				{
					"attributes":{
						"POSITION":0,
						"NORMAL":1,
						"TEXCOORD_0":2
					},
					"indices":3,
					"material":0
				}
			]
		},
		{
			"name":"Cube.002",
			"primitives":[
				{
					"attributes":{
						"POSITION":4,
						"NORMAL":5,
						"TEXCOORD_0":6
					},
					"indices":7,
					"material":1
				}
			]
		},
		{
			"name":"Cube.003",
			"primitives":[
				{
					"attributes":{
						"POSITION":8,
						"NORMAL":9,
						"TEXCOORD_0":10
					},
					"indices":11
				}
			]
		},
		{
			"name":"Cube.004",
			"primitives":[
				{
					"attributes":{
						"POSITION":12,
						"NORMAL":13,
						"TEXCOORD_0":14
					},
					"indices":15
				}
			]
		}
	],
	"accessors":[
		{
			"bufferView":0,
			"componentType":5126,
			"count":500,
			"max":[
				1.3543542623519897,
				1.3465816974639893,
				1.217745304107666
			],
			"min":[
				-1.2218153476715088,
				-0.18282535672187805,
				-0.9022741913795471
			],
			"type":"VEC3"
		},
		{
			"bufferView":1,
			"componentType":5126,
			"count":500,
			"type":"VEC3"
		},
		{
			"bufferView":2,
			"componentType":5126,
			"count":500,
			"type":"VEC2"
		},
		{
			"bufferView":3,
			"componentType":5123,
			"count":804,
			"type":"SCALAR"
		},
		{
			"bufferView":4,
			"componentType":5126,
			"count":678,
			"max":[
				-6.118457794189453,
				82.23067474365234,
				1064.6590576171875
			],
			"min":[
				-45.82170104980469,
				51.1019287109375,
				912.2051391601562
			],
			"type":"VEC3"
		},
		{
			"bufferView":5,
			"componentType":5126,
			"count":678,
			"type":"VEC3"
		},
		{
			"bufferView":6,
			"componentType":5126,
			"count":678,
			"type":"VEC2"
		},
		{
			"bufferView":7,
			"componentType":5123,
			"count":1188,
			"type":"SCALAR"
		},
		{
			"bufferView":8,
			"componentType":5126,
			"count":226,
			"max":[
				17.58148193359375,
				1.0856361389160156,
				0.04191499948501587
			],
			"min":[
				-1,
				-0.9143638610839844,
				-10.595694541931152
			],
			"type":"VEC3"
		},
		{
			"bufferView":9,
			"componentType":5126,
			"count":226,
			"type":"VEC3"
		},
		{
			"bufferView":10,
			"componentType":5126,
			"count":226,
			"type":"VEC2"
		},
		{
			"bufferView":11,
			"componentType":5123,
			"count":414,
			"type":"SCALAR"
		},
		{
			"bufferView":12,
			"componentType":5126,
			"count":244,
			"max":[
				27.870426177978516,
				7.289768218994141,
				1
			],
			"min":[
				24.726091384887695,
				-1,
				-4.967013359069824
			],
			"type":"VEC3"
		},
		{
			"bufferView":13,
			"componentType":5126,
			"count":244,
			"type":"VEC3"
		},
		{
			"bufferView":14,
			"componentType":5126,
			"count":244,
			"type":"VEC2"
		},
		{
			"bufferView":15,
			"componentType":5123,
			"count":456,
			"type":"SCALAR"
		}
	],
	"bufferViews":[
		{
			"buffer":0,
			"byteLength":6000,
			"byteOffset":0,
			"target":34962
		},
		{
			"buffer":0,
			"byteLength":6000,
			"byteOffset":6000,
			"target":34962
		},
		{
			"buffer":0,
			"byteLength":4000,
			"byteOffset":12000,
			"target":34962
		},
		{
			"buffer":0,
			"byteLength":1608,
			"byteOffset":16000,
			"target":34963
		},
		{
			"buffer":0,
			"byteLength":8136,
			"byteOffset":17608,
			"target":34962
		},
		{
			"buffer":0,
			"byteLength":8136,
			"byteOffset":25744,
			"target":34962
		},
		{
			"buffer":0,
			"byteLength":5424,
			"byteOffset":33880,
			"target":34962
		},
		{
			"buffer":0,
			"byteLength":2376,
			"byteOffset":39304,
			"target":34963
		},
		{
			"buffer":0,
			"byteLength":2712,
			"byteOffset":41680,
			"target":34962
		},
		{
			"buffer":0,
			"byteLength":2712,
			"byteOffset":44392,
			"target":34962
		},
		{
			"buffer":0,
			"byteLength":1808,
			"byteOffset":47104,
			"target":34962
		},
		{
			"buffer":0,
			"byteLength":828,
			"byteOffset":48912,
			"target":34963
		},
		{
			"buffer":0,
			"byteLength":2928,
			"byteOffset":49740,
			"target":34962
		},
		{
			"buffer":0,
			"byteLength":2928,
			"byteOffset":52668,
			"target":34962
		},
		{
			"buffer":0,
			"byteLength":1952,
			"byteOffset":55596,
			"target":34962
		},
		{
			"buffer":0,
			"byteLength":912,
			"byteOffset":57548,
			"target":34963
		}
	],
	"buffers":[
		{
			"byteLength":58460,
			"uri":"floating_island.bin"
		}
	]
}
